<svg width="36" height="36" viewBox="0 0 36 36" fill="none" xmlns="http://www.w3.org/2000/svg">
<path d="M21.231 18.693H27.3465V17.193H21.231V18.693ZM21.231 14.538H27.3465V13.038H21.231V14.538ZM8.6535 22.962H18.5775V22.713C18.5775 21.838 18.1375 21.1605 17.2575 20.6805C16.3775 20.2005 15.1635 19.9605 13.6155 19.9605C12.0675 19.9605 10.853 20.2005 9.972 20.6805C9.091 21.1605 8.6515 21.838 8.6535 22.713V22.962ZM13.6155 17.538C14.2485 17.538 14.7815 17.3215 15.2145 16.8885C15.6485 16.4545 15.8655 15.921 15.8655 15.288C15.8655 14.655 15.6485 14.122 15.2145 13.689C14.7805 13.256 14.2475 13.039 13.6155 13.038C12.9835 13.037 12.4505 13.254 12.0165 13.689C11.5825 14.124 11.3655 14.657 11.3655 15.288C11.3655 15.919 11.5825 16.4525 12.0165 16.8885C12.4505 17.3245 12.9835 17.541 13.6155 17.538ZM6.924 28.5C6.233 28.5 5.6565 28.269 5.1945 27.807C4.7325 27.345 4.501 26.768 4.5 26.076V9.924C4.5 9.233 4.7315 8.6565 5.1945 8.1945C5.6575 7.7325 6.2335 7.501 6.9225 7.5H29.0775C29.7675 7.5 30.3435 7.7315 30.8055 8.1945C31.2675 8.6575 31.499 9.234 31.5 9.924V26.0775C31.5 26.7675 31.2685 27.344 30.8055 27.807C30.3425 28.27 29.7665 28.501 29.0775 28.5H6.924ZM6.924 27H29.0775C29.3075 27 29.519 26.904 29.712 26.712C29.905 26.52 30.001 26.308 30 26.076V9.924C30 9.693 29.904 9.481 29.712 9.288C29.52 9.095 29.3085 8.999 29.0775 9H6.9225C6.6925 9 6.481 9.096 6.288 9.288C6.095 9.48 5.999 9.692 6 9.924V26.0775C6 26.3075 6.096 26.519 6.288 26.712C6.48 26.905 6.6915 27.001 6.9225 27" fill="white"/>
</svg>
