<svg width="36" height="36" viewBox="0 0 36 36" fill="none" xmlns="http://www.w3.org/2000/svg">
<path d="M6 22.5C6.3674 22.5 6.72201 22.6349 6.99656 22.8791C7.27111 23.1232 7.44651 23.4596 7.4895 23.8245L7.5 24V28.5H13.5C13.8823 28.5004 14.25 28.6468 14.5281 28.9093C14.8061 29.1717 14.9734 29.5304 14.9958 29.9121C15.0182 30.2938 14.894 30.6696 14.6486 30.9627C14.4032 31.2559 14.0551 31.4443 13.6755 31.4895L13.5 31.5H7.5C6.74314 31.5002 6.01415 31.2144 5.45918 30.6998C4.90421 30.1851 4.56426 29.4797 4.5075 28.725L4.5 28.5V24C4.5 23.6022 4.65804 23.2206 4.93934 22.9393C5.22064 22.658 5.60218 22.5 6 22.5ZM30 22.5C30.3978 22.5 30.7794 22.658 31.0607 22.9393C31.342 23.2206 31.5 23.6022 31.5 24V28.5C31.5 29.2956 31.1839 30.0587 30.6213 30.6213C30.0587 31.1839 29.2956 31.5 28.5 31.5H22.5C22.1022 31.5 21.7206 31.342 21.4393 31.0607C21.158 30.7794 21 30.3978 21 30C21 29.6022 21.158 29.2206 21.4393 28.9393C21.7206 28.658 22.1022 28.5 22.5 28.5H28.5V24C28.5 23.6022 28.658 23.2206 28.9393 22.9393C29.2206 22.658 29.6022 22.5 30 22.5ZM30 16.5C30.3823 16.5004 30.75 16.6468 31.0281 16.9093C31.3061 17.1717 31.4734 17.5304 31.4958 17.9121C31.5182 18.2938 31.394 18.6696 31.1486 18.9627C30.9032 19.2559 30.5551 19.4443 30.1755 19.4895L30 19.5H6C5.61768 19.4996 5.24995 19.3532 4.97195 19.0907C4.69394 18.8283 4.52665 18.4696 4.50424 18.0879C4.48184 17.7062 4.60601 17.3304 4.8514 17.0373C5.09678 16.7441 5.44486 16.5557 5.8245 16.5105L6 16.5H30ZM13.5 4.5C13.8978 4.5 14.2794 4.65804 14.5607 4.93934C14.842 5.22064 15 5.60218 15 6C15 6.39782 14.842 6.77936 14.5607 7.06066C14.2794 7.34196 13.8978 7.5 13.5 7.5H7.5V12C7.5 12.3978 7.34196 12.7794 7.06066 13.0607C6.77936 13.342 6.39782 13.5 6 13.5C5.60218 13.5 5.22064 13.342 4.93934 13.0607C4.65804 12.7794 4.5 12.3978 4.5 12V7.5C4.5 6.70435 4.81607 5.94129 5.37868 5.37868C5.94129 4.81607 6.70435 4.5 7.5 4.5H13.5ZM28.5 4.5C29.2956 4.5 30.0587 4.81607 30.6213 5.37868C31.1839 5.94129 31.5 6.70435 31.5 7.5V12C31.5 12.3978 31.342 12.7794 31.0607 13.0607C30.7794 13.342 30.3978 13.5 30 13.5C29.6022 13.5 29.2206 13.342 28.9393 13.0607C28.658 12.7794 28.5 12.3978 28.5 12V7.5H22.5C22.1022 7.5 21.7206 7.34196 21.4393 7.06066C21.158 6.77936 21 6.39782 21 6C21 5.60218 21.158 5.22064 21.4393 4.93934C21.7206 4.65804 22.1022 4.5 22.5 4.5H28.5Z" fill="white"/>
</svg>
