<svg width="28" height="28" viewBox="0 0 28 28" fill="none" xmlns="http://www.w3.org/2000/svg">
<path d="M23.2167 14.7698C23.0296 14.5569 22.9265 14.2832 22.9265 13.9998C22.9265 13.7164 23.0296 13.4427 23.2167 13.2298L24.71 11.5498C24.8745 11.3662 24.9767 11.1353 25.0019 10.8901C25.027 10.6448 24.9739 10.3979 24.85 10.1848L22.5166 6.14813C22.394 5.93524 22.2073 5.76649 21.9832 5.66593C21.759 5.56537 21.5089 5.53815 21.2683 5.58813L19.075 6.03146C18.7959 6.08913 18.5054 6.04265 18.2582 5.9008C18.011 5.75894 17.8243 5.53153 17.7333 5.26146L17.0216 3.12646C16.9434 2.89474 16.7943 2.69347 16.5954 2.55111C16.3965 2.40875 16.1579 2.3325 15.9133 2.33313H11.2466C10.9922 2.31985 10.7405 2.39021 10.5298 2.53346C10.3191 2.67671 10.1612 2.88499 10.08 3.12646L9.42665 5.26146C9.33565 5.53153 9.14895 5.75894 8.90178 5.9008C8.65461 6.04265 8.36407 6.08913 8.08498 6.03146L5.83331 5.58813C5.60529 5.55591 5.37283 5.59189 5.16522 5.69154C4.95761 5.7912 4.78413 5.95006 4.66665 6.14813L2.33331 10.1848C2.20633 10.3956 2.14924 10.6411 2.17019 10.8862C2.19115 11.1314 2.28908 11.3636 2.44998 11.5498L3.93165 13.2298C4.11869 13.4427 4.22184 13.7164 4.22184 13.9998C4.22184 14.2832 4.11869 14.5569 3.93165 14.7698L2.44998 16.4498C2.28908 16.6359 2.19115 16.8682 2.17019 17.1134C2.14924 17.3585 2.20633 17.604 2.33331 17.8148L4.66665 21.8515C4.78926 22.0644 4.97595 22.2331 5.20011 22.3337C5.42426 22.4342 5.67444 22.4614 5.91498 22.4115L8.10831 21.9681C8.3874 21.9105 8.67794 21.9569 8.92511 22.0988C9.17228 22.2406 9.35898 22.4681 9.44998 22.7381L10.1616 24.8731C10.2428 25.1146 10.4008 25.3229 10.6115 25.4661C10.8221 25.6094 11.0739 25.6797 11.3283 25.6665H15.995C16.2396 25.6671 16.4782 25.5908 16.677 25.4485C16.8759 25.3061 17.025 25.1049 17.1033 24.8731L17.815 22.7381C17.906 22.4681 18.0927 22.2406 18.3398 22.0988C18.587 21.9569 18.8776 21.9105 19.1566 21.9681L21.35 22.4115C21.5905 22.4614 21.8407 22.4342 22.0649 22.3337C22.289 22.2331 22.4757 22.0644 22.5983 21.8515L24.9317 17.8148C25.0555 17.6017 25.1087 17.3548 25.0835 17.1095C25.0584 16.8643 24.9562 16.6333 24.7916 16.4498L23.2167 14.7698ZM21.4783 16.3331L22.4116 17.3831L20.9183 19.9731L19.5416 19.6931C18.7014 19.5214 17.8273 19.6641 17.0853 20.0942C16.3434 20.5244 15.7852 21.2119 15.5166 22.0265L15.0733 23.3331H12.0866L11.6666 22.0031C11.3981 21.1886 10.8399 20.501 10.098 20.0709C9.35598 19.6408 8.48191 19.498 7.64165 19.6698L6.26498 19.9498L4.74831 17.3715L5.68165 16.3215C6.25559 15.6798 6.5729 14.849 6.5729 13.9881C6.5729 13.1272 6.25559 12.2965 5.68165 11.6548L4.74831 10.6048L6.24165 8.03813L7.61831 8.31813C8.45857 8.48989 9.33265 8.34716 10.0746 7.91703C10.8166 7.4869 11.3748 6.79931 11.6433 5.9848L12.0866 4.66646H15.0733L15.5166 5.99646C15.7852 6.81098 16.3434 7.49857 17.0853 7.92869C17.8273 8.35882 18.7014 8.50155 19.5416 8.3298L20.9183 8.0498L22.4116 10.6398L21.4783 11.6898C20.9108 12.33 20.5974 13.1559 20.5974 14.0115C20.5974 14.867 20.9108 15.6929 21.4783 16.3331ZM13.58 9.33313C12.657 9.33313 11.7547 9.60682 10.9873 10.1196C10.2199 10.6324 9.62175 11.3612 9.26854 12.2139C8.91533 13.0667 8.82292 14.005 9.00298 14.9102C9.18305 15.8155 9.6275 16.647 10.2801 17.2996C10.9328 17.9523 11.7643 18.3967 12.6696 18.5768C13.5748 18.7569 14.5131 18.6644 15.3658 18.3112C16.2186 17.958 16.9474 17.3599 17.4602 16.5925C17.973 15.825 18.2466 14.9228 18.2466 13.9998C18.2466 12.7621 17.755 11.5751 16.8798 10.7C16.0046 9.82479 14.8177 9.33313 13.58 9.33313ZM13.58 16.3331C13.1185 16.3331 12.6674 16.1963 12.2837 15.9399C11.8999 15.6835 11.6009 15.3191 11.4243 14.8927C11.2477 14.4664 11.2015 13.9972 11.2915 13.5446C11.3815 13.092 11.6037 12.6762 11.9301 12.3499C12.2564 12.0236 12.6721 11.8013 13.1248 11.7113C13.5774 11.6213 14.0465 11.6675 14.4729 11.8441C14.8993 12.0207 15.2637 12.3198 15.5201 12.7035C15.7765 13.0872 15.9133 13.5383 15.9133 13.9998C15.9133 14.6186 15.6675 15.2121 15.2299 15.6497C14.7923 16.0873 14.1988 16.3331 13.58 16.3331Z" fill="white"/>
</svg>
